<?xml version="1.0" standalone="no"?>
<!DOCTYPE svg PUBLIC "-//W3C//DTD SVG 20010904//EN"
 "http://www.w3.org/TR/2001/REC-SVG-20010904/DTD/svg10.dtd">
<svg version="1.0" xmlns="http://www.w3.org/2000/svg"
 width="1280.000000pt" height="728.000000pt" viewBox="0 0 1280.000000 728.000000"
 preserveAspectRatio="xMidYMid meet">
<metadata>
Created by potrace 1.15, written by Peter Selinger 2001-2017
</metadata>
<g transform="translate(0.000000,728.000000) scale(0.100000,-0.100000)"
fill="#000000" stroke="none">
<path d="M9660 7274 c-19 -2 -78 -9 -130 -15 -887 -101 -1760 -667 -2731
-1771 -130 -148 -503 -593 -564 -672 -15 -20 -31 -36 -36 -36 -4 0 -56 43
-114 95 -302 269 -598 496 -850 652 -106 67 -768 429 -940 515 -388 195 -745
282 -1165 282 -200 0 -318 -12 -505 -49 -692 -138 -1357 -556 -1839 -1155
-420 -523 -675 -1116 -763 -1775 -24 -183 -24 -605 0 -805 46 -373 133 -679
277 -976 177 -362 448 -672 766 -877 117 -75 785 -437 919 -498 659 -298 1503
-238 2305 165 671 337 1240 858 2163 1979 76 92 142 167 146 167 3 0 55 -43
114 -94 364 -322 684 -561 967 -723 227 -130 831 -453 928 -497 231 -104 509
-181 766 -212 161 -20 526 -14 681 10 767 122 1482 563 2008 1239 384 492 630
1087 714 1722 24 183 24 621 -1 795 -55 398 -155 739 -303 1034 -172 344 -393
601 -678 791 -99 65 -668 381 -870 482 -194 98 -441 170 -715 209 -100 14
-476 27 -550 18z m802 -1575 l103 -12 46 -48 c204 -213 345 -582 380 -989 41
-498 -144 -1060 -486 -1468 -285 -342 -647 -564 -1065 -653 -87 -19 -137 -23
-295 -23 -206 -1 -283 10 -468 64 -90 26 -108 35 -210 113 -62 47 -168 133
-237 192 -110 94 -574 514 -718 650 l-54 51 173 214 c536 666 904 1059 1251
1336 548 439 1073 629 1580 573z m-6652 -929 c226 -24 386 -71 485 -144 151
-110 323 -260 685 -591 96 -88 214 -196 263 -239 48 -43 87 -84 87 -90 0 -14
-293 -381 -484 -605 -385 -454 -733 -799 -1042 -1033 -197 -150 -504 -320
-697 -387 -186 -65 -352 -98 -532 -108 -147 -7 -319 10 -355 36 -87 62 -257
356 -320 550 -69 214 -106 479 -97 691 34 736 476 1431 1112 1747 206 103 354
145 620 176 63 8 184 6 275 -3z"/>
</g>
</svg>
